<svg width="13" height="14" viewBox="0 0 13 14" fill="none" xmlns="http://www.w3.org/2000/svg">
<path d="M6.5 7.94796V4.50351" stroke="#333333"/>
<path d="M6.5 7.94791L9.47131 10.0278" stroke="#333333"/>
<path d="M6.5 7.94791L3.52893 10.0276" stroke="#333333"/>
<path d="M6.49999 4.56251C7.32266 4.56251 7.98957 3.8956 7.98957 3.07293C7.98957 2.25025 7.32266 1.58334 6.49999 1.58334C5.67732 1.58334 5.01041 2.25025 5.01041 3.07293C5.01041 3.8956 5.67732 4.56251 6.49999 4.56251Z" stroke="#333333"/>
<path d="M2.43749 12.4167C3.26016 12.4167 3.92707 11.7498 3.92707 10.9271C3.92707 10.1044 3.26016 9.4375 2.43749 9.4375C1.61482 9.4375 0.947906 10.1044 0.947906 10.9271C0.947906 11.7498 1.61482 12.4167 2.43749 12.4167Z" stroke="#333333"/>
<path d="M10.5625 12.4167C11.3852 12.4167 12.0521 11.7498 12.0521 10.9271C12.0521 10.1044 11.3852 9.4375 10.5625 9.4375C9.73982 9.4375 9.07291 10.1044 9.07291 10.9271C9.07291 11.7498 9.73982 12.4167 10.5625 12.4167Z" stroke="#333333"/>
</svg>
